<svg xmlns="http://www.w3.org/2000/svg" version="1.1" xmlns:xlink="http://www.w3.org/1999/xlink" viewBox="0 0 10.796653391335225 3.2513982421875"><g transform="matrix(0.7352662490273375,0,0,0.7352662490273375,1.8594967014000545,0.9556041986847447)"><rect width="11.967324360795452" height="11.967324360795452" x="-1.170670969460227" y="-5.072298544034089" fill="#3361e1"></rect><g transform="matrix(1,0,0,1,0,0)" clip-path="url(#SvgjsClipPath3185)"><path d=" M 8.367982421874997 -0.129 L 9.625982421874998 -0.129 L 9.625982421874998 1.129 L 8.367982421874997 1.129 Z M 8.376051312499998 -0.12093110937500001 L 8.376051312499998 1.1209311093749998 L 9.617913531249997 1.1209311093749998 L 9.617913531249997 -0.12093110937499996 Z" fill="#ffffff" transform="matrix(1,0,0,1,0,0)" fill-rule="nonzero"></path><path d=" M 8.898150509572927 0.599214981729598 L 8.897384370717871 0.7352046285018271 C 8.897384370717871 0.747462850182704 8.897384370717871 0.7579334145351198 8.897384370717871 0.7666163215590743 C 8.89712899109952 0.7704470158343484 8.897001301290345 0.7737669508729191 8.897001301290345 0.7765761266747868 C 8.83264563746574 0.7765761266747868 8.789869551391847 0.7755546082013804 8.768673043068663 0.7735115712545676 C 8.746710395890425 0.7712131546894032 8.733941414972845 0.7705747056435241 8.730366100315923 0.7715962241169305 C 8.726790785659 0.772617742590337 8.723726230238782 0.7742777101096224 8.721172434055266 0.7765761266747868 C 8.716064841688233 0.7811729598051157 8.713511045504717 0.7862167072675599 8.713511045504717 0.7917073690621194 C 8.713511045504717 0.7971980308566788 8.715937151879057 0.8019225537961835 8.720789364627738 0.8058809378806333 C 8.725641577376418 0.8098393219650831 8.732409137262735 0.8115631343889566 8.74109204428669 0.8110523751522534 C 8.782974301696353 0.8077324401136825 8.82077048521239 0.8071578359723913 8.854480594834802 0.8093285627283799 C 8.888190704457214 0.8114992894843686 8.907088796215232 0.8129038773853023 8.911174870108859 0.8135423264311814 C 8.915260944002483 0.8141807754770605 8.918900103563994 0.8141807754770605 8.92209234879339 0.8135423264311814 C 8.925284594022784 0.8129038773853023 8.92815761472924 0.8115631343889566 8.930711410912757 0.8095200974421437 C 8.936585142134843 0.8051786439301664 8.939266628127534 0.7987941534713763 8.938755868890832 0.7903666260657733 C 8.934925174615557 0.7165619163621599 8.933009827477921 0.6349042833942347 8.933009827477921 0.5453937271619975 C 8.933009827477921 0.4558831709297605 8.932945982573333 0.39957196508323184 8.932818292764157 0.3764601096224117 C 8.932690602954981 0.35334825416159155 8.932626758050393 0.33221559074299634 8.932626758050393 0.31306211936662603 C 8.933137517287097 0.2719460008120178 8.934031345951327 0.2428965692245229 8.935308244043085 0.22591382460414128 C 8.936585142134843 0.20893107998375965 8.936265917611903 0.19877974015428343 8.934350570474265 0.19545980511571256 C 8.932435223336629 0.1921398700771417 8.930072961866877 0.1897137637028015 8.927263786065009 0.1881814859926919 C 8.923433091789736 0.18639382866423063 8.918580879041055 0.1860107592367032 8.912707147818967 0.18703227771010966 C 8.9019812038482 0.18881993503857086 8.887807635029686 0.18971376370280146 8.870186441363426 0.18971376370280146 C 8.836220952122662 0.18971376370280146 8.813045251757254 0.18901146975233457 8.800659340267202 0.1876068818514008 C 8.78827342877715 0.18620229395046692 8.780292815703662 0.18607460414129112 8.77671750104674 0.18722381242387337 C 8.773142186389816 0.18837302070645554 8.770205320778773 0.18996914332115306 8.767906904213609 0.19201218026796593 C 8.762799311846576 0.19609825416159155 8.76024551566306 0.20107815671944781 8.76024551566306 0.20695188794153468 C 8.76024551566306 0.21282561916362158 8.762543932228224 0.21767783191230206 8.767140765358553 0.22150852618757613 C 8.771737598488883 0.2253392204628502 8.777994399138496 0.22706303288672353 8.785911167307397 0.2266799634591961 C 8.793827935476296 0.2262968940316687 8.802255462881899 0.22578613479496548 8.811193749524206 0.22514768574908645 C 8.82013203616651 0.2245092367032075 8.829708771854696 0.22393463256191642 8.83992395658876 0.22342387332521318 C 8.861375844530295 0.22265773447015838 8.880018556669963 0.22291311408850997 8.895852093007761 0.22419001218026802 C 8.895852093007761 0.2464080389768575 8.895979782816937 0.26849837596427123 8.89623516243529 0.29046102314250916 C 8.896490542053641 0.3165097442143727 8.896745921671993 0.3429415347137637 8.897001301290345 0.3697563946406821 C 8.8977674401454 0.4417734470158343 8.898150509572927 0.49489240763296793 8.898150509572927 0.5291132764920827 C 8.866228057278976 0.5291132764920827 8.842733132390629 0.5283471376370279 8.827665734907884 0.5268148599269185 C 8.811321439333382 0.5250272025984571 8.801042409694729 0.525793341453512 8.796828645991928 0.5291132764920827 C 8.792614882289126 0.5324332115306536 8.790508000437725 0.5369023548518067 8.790508000437725 0.542520706455542 C 8.790508000437725 0.5565665854648802 8.803660050782833 0.5633341453511977 8.829964151473048 0.5628233861144945 C 8.835327123458432 0.5625680064961429 8.840179336207113 0.5624403166869671 8.84452078971909 0.5624403166869671 L 8.875549413348809 0.5620572472594396 L 8.898150509572927 0.5620572472594396 L 8.898150509572927 0.599214981729598" fill="#ffffff" transform="matrix(1,0,0,1,0,0)" fill-rule="nonzero"></path><path d=" M 9.095814334177067 0.599214981729598 L 9.096580473032123 0.7352046285018271 C 9.096580473032123 0.747462850182704 9.096580473032123 0.7579334145351198 9.096580473032123 0.7666163215590743 C 9.096835852650475 0.7704470158343484 9.096963542459651 0.7737669508729191 9.096963542459651 0.7765761266747868 C 9.161319206284254 0.7765761266747868 9.204095292358147 0.7755546082013804 9.225291800681331 0.7735115712545676 C 9.24725444785957 0.7712131546894032 9.26002342877715 0.7705747056435241 9.263598743434072 0.7715962241169305 C 9.267174058090994 0.772617742590337 9.270238613511214 0.7742777101096224 9.272792409694729 0.7765761266747868 C 9.277900002061761 0.7811729598051157 9.280453798245277 0.7862167072675599 9.280453798245277 0.7917073690621194 C 9.280453798245277 0.7971980308566788 9.278027691870937 0.8019225537961835 9.273175479122257 0.8058809378806333 C 9.268323266373576 0.8098393219650831 9.26155570648726 0.8115631343889566 9.252872799463304 0.8110523751522534 C 9.210990542053642 0.8077324401136825 9.173194358537604 0.8071578359723913 9.139484248915192 0.8093285627283799 C 9.10577413929278 0.8114992894843686 9.086876047534762 0.8129038773853023 9.082789973641136 0.8135423264311814 C 9.078703899747511 0.8141807754770605 9.075064740186 0.8141807754770605 9.071872494956605 0.8135423264311814 C 9.06868024972721 0.8129038773853023 9.065807229020754 0.8115631343889566 9.06325343283724 0.8095200974421437 C 9.057379701615151 0.8051786439301664 9.05469821562246 0.7987941534713763 9.055208974859163 0.7903666260657733 C 9.059039669134437 0.7165619163621599 9.060955016272073 0.6349042833942347 9.060955016272073 0.5453937271619975 C 9.060955016272073 0.4558831709297605 9.061018861176661 0.39957196508323184 9.061146550985837 0.3764601096224117 C 9.061274240795013 0.35334825416159155 9.061338085699601 0.33221559074299634 9.061338085699601 0.31306211936662603 C 9.0608273264629 0.2719460008120178 9.059933497798667 0.2428965692245229 9.058656599706909 0.22591382460414128 C 9.057379701615151 0.20893107998375965 9.057698926138091 0.19877974015428343 9.059614273275729 0.19545980511571256 C 9.061529620413365 0.1921398700771417 9.063891881883118 0.1897137637028015 9.066701057684986 0.1881814859926919 C 9.070531751960258 0.18639382866423063 9.075383964708939 0.1860107592367032 9.081257695931027 0.18703227771010966 C 9.091983639901795 0.18881993503857086 9.106157208720308 0.18971376370280146 9.123778402386568 0.18971376370280146 C 9.157743891627332 0.18971376370280146 9.18091959199274 0.18901146975233457 9.193305503482792 0.1876068818514008 C 9.205691414972845 0.18620229395046692 9.213672028046332 0.18607460414129112 9.217247342703256 0.18722381242387337 C 9.220822657360179 0.18837302070645554 9.223759522971221 0.18996914332115306 9.226057939536386 0.19201218026796593 C 9.231165531903418 0.19609825416159155 9.233719328086934 0.20107815671944781 9.233719328086934 0.20695188794153468 C 9.233719328086934 0.21282561916362158 9.23142091152177 0.21767783191230206 9.226824078391441 0.22150852618757613 C 9.222227245261111 0.2253392204628502 9.215970444611498 0.22706303288672353 9.208053676442598 0.2266799634591961 C 9.200136908273699 0.2262968940316687 9.191709380868096 0.22578613479496548 9.182771094225789 0.22514768574908645 C 9.173832807583484 0.2245092367032075 9.164256071895299 0.22393463256191642 9.154040887161234 0.22342387332521318 C 9.1325889992197 0.22265773447015838 9.113946287080031 0.22291311408850997 9.098112750742233 0.22419001218026802 C 9.098112750742233 0.2464080389768575 9.097985060933057 0.26849837596427123 9.097729681314705 0.29046102314250916 C 9.097474301696353 0.3165097442143727 9.097218922078001 0.3429415347137637 9.096963542459651 0.3697563946406821 C 9.096197403604595 0.4417734470158343 9.095814334177067 0.49489240763296793 9.095814334177067 0.5291132764920827 C 9.127736786471019 0.5291132764920827 9.151231711359365 0.5283471376370279 9.16629910884211 0.5268148599269185 C 9.182643404416613 0.5250272025984571 9.192922434055266 0.525793341453512 9.197136197758066 0.5291132764920827 C 9.201349961460869 0.5324332115306536 9.203456843312269 0.5369023548518067 9.203456843312269 0.542520706455542 C 9.203456843312269 0.5565665854648802 9.190304792967162 0.5633341453511977 9.164000692276947 0.5628233861144945 C 9.158637720291562 0.5625680064961429 9.153785507542882 0.5624403166869671 9.149444054030905 0.5624403166869671 L 9.118415430401186 0.5620572472594396 L 9.095814334177067 0.5620572472594396 L 9.095814334177067 0.599214981729598" fill="#ffffff" transform="matrix(1,0,0,1,0,0)" fill-rule="nonzero"></path></g><g><path d=" M 0.168 0.11699999999999999 L 0.168 0.35 L 0.422 0.35 L 0.422 0.425 L 0.168 0.425 L 0.168 0.665 L 0.452 0.665 L 0.452 0.74 L 0.077 0.74 L 0.077 0.041999999999999926 L 0.452 0.041999999999999926 L 0.452 0.11699999999999999 L 0.168 0.11699999999999999 M 0.79300048828125 0.656 L 0.96300048828125 0.19199999999999995 L 1.0600004882812502 0.19199999999999995 L 0.8450004882812501 0.74 L 0.73900048828125 0.74 L 0.52400048828125 0.19199999999999995 L 0.62200048828125 0.19199999999999995 L 0.79300048828125 0.656 M 1.248474609375 0.714 Q 1.185974609375 0.679 1.150474609375 0.6145 Q 1.114974609375 0.55 1.114974609375 0.46499999999999997 Q 1.114974609375 0.381 1.151474609375 0.3165 Q 1.187974609375 0.252 1.250974609375 0.21750000000000003 Q 1.313974609375 0.18299999999999994 1.391974609375 0.18299999999999994 Q 1.469974609375 0.18299999999999994 1.532974609375 0.21750000000000003 Q 1.595974609375 0.252 1.632474609375 0.316 Q 1.668974609375 0.38 1.668974609375 0.46499999999999997 Q 1.668974609375 0.55 1.631474609375 0.6145 Q 1.593974609375 0.679 1.529974609375 0.714 Q 1.465974609375 0.749 1.387974609375 0.749 Q 1.310974609375 0.749 1.248474609375 0.714 M 1.4799746093750001 0.646 Q 1.522974609375 0.623 1.549474609375 0.577 Q 1.575974609375 0.531 1.575974609375 0.46499999999999997 Q 1.575974609375 0.39899999999999997 1.549974609375 0.353 Q 1.523974609375 0.307 1.481974609375 0.2845 Q 1.439974609375 0.26199999999999996 1.390974609375 0.26199999999999996 Q 1.340974609375 0.26199999999999996 1.299474609375 0.2845 Q 1.257974609375 0.307 1.232974609375 0.353 Q 1.207974609375 0.39899999999999997 1.207974609375 0.46499999999999997 Q 1.207974609375 0.532 1.232474609375 0.578 Q 1.256974609375 0.624 1.297974609375 0.6465 Q 1.3389746093750001 0.669 1.387974609375 0.669 Q 1.436974609375 0.669 1.4799746093750001 0.646 M 1.8789892578124998 0 L 1.8789892578124998 0.74 L 1.7879892578124998 0.74 L 1.7879892578124998 0 L 1.8789892578124998 0 M 2.5189609375 0.19199999999999995 L 2.5189609375 0.74 L 2.4279609375 0.74 L 2.4279609375 0.659 Q 2.4019609375 0.701 2.3554609375 0.7245 Q 2.3089609375 0.748 2.2529609375 0.748 Q 2.1889609375 0.748 2.1379609375 0.7215 Q 2.0869609375 0.695 2.0574609375 0.642 Q 2.0279609375 0.589 2.0279609375 0.513 L 2.0279609375 0.19199999999999995 L 2.1179609375 0.19199999999999995 L 2.1179609375 0.501 Q 2.1179609375 0.582 2.1589609375 0.6255 Q 2.1999609375 0.669 2.2709609375 0.669 Q 2.3439609375 0.669 2.3859609375 0.624 Q 2.4279609375 0.579 2.4279609375 0.493 L 2.4279609375 0.19199999999999995 L 2.5189609375 0.19199999999999995 M 2.6719755859375 0.3165 Q 2.7059755859375003 0.253 2.7664755859375 0.21799999999999997 Q 2.8269755859375003 0.18299999999999994 2.9049755859375 0.18299999999999994 Q 3.0059755859375 0.18299999999999994 3.0714755859375003 0.23199999999999998 Q 3.1369755859375 0.28099999999999997 3.1579755859375003 0.368 L 3.0599755859375 0.368 Q 3.0459755859375 0.318 3.0054755859375 0.289 Q 2.9649755859375 0.26 2.9049755859375 0.26 Q 2.8269755859375003 0.26 2.7789755859375003 0.3135 Q 2.7309755859375002 0.367 2.7309755859375002 0.46499999999999997 Q 2.7309755859375002 0.5640000000000001 2.7789755859375003 0.618 Q 2.8269755859375003 0.6719999999999999 2.9049755859375 0.6719999999999999 Q 2.9649755859375 0.6719999999999999 3.0049755859375002 0.644 Q 3.0449755859375003 0.616 3.0599755859375 0.5640000000000001 L 3.1579755859375003 0.5640000000000001 Q 3.1359755859375 0.648 3.0699755859375 0.6985 Q 3.0039755859375 0.749 2.9049755859375 0.749 Q 2.8269755859375003 0.749 2.7664755859375 0.714 Q 2.7059755859375003 0.679 2.6719755859375 0.615 Q 2.6379755859375003 0.5509999999999999 2.6379755859375003 0.46499999999999997 Q 2.6379755859375003 0.38 2.6719755859375 0.3165 M 3.7749702148437505 0.5 L 3.3369702148437503 0.5 Q 3.3419702148437502 0.581 3.39247021484375 0.6265 Q 3.44297021484375 0.6719999999999999 3.5149702148437503 0.6719999999999999 Q 3.57397021484375 0.6719999999999999 3.6134702148437503 0.6445 Q 3.65297021484375 0.617 3.66897021484375 0.571 L 3.7669702148437505 0.571 Q 3.7449702148437503 0.65 3.6789702148437504 0.6995 Q 3.61297021484375 0.749 3.5149702148437503 0.749 Q 3.4369702148437504 0.749 3.3754702148437503 0.714 Q 3.31397021484375 0.679 3.27897021484375 0.6145 Q 3.2439702148437504 0.55 3.2439702148437504 0.46499999999999997 Q 3.2439702148437504 0.38 3.27797021484375 0.316 Q 3.3119702148437504 0.252 3.37347021484375 0.21750000000000003 Q 3.43497021484375 0.18299999999999994 3.5149702148437503 0.18299999999999994 Q 3.59297021484375 0.18299999999999994 3.65297021484375 0.21699999999999997 Q 3.7129702148437502 0.251 3.74547021484375 0.3105 Q 3.77797021484375 0.37 3.77797021484375 0.445 Q 3.77797021484375 0.471 3.7749702148437505 0.5 M 3.66097021484375 0.33649999999999997 Q 3.63797021484375 0.299 3.59847021484375 0.27949999999999997 Q 3.5589702148437503 0.26 3.5109702148437503 0.26 Q 3.4419702148437503 0.26 3.39347021484375 0.304 Q 3.3449702148437503 0.348 3.3379702148437502 0.426 L 3.6839702148437503 0.426 Q 3.6839702148437503 0.374 3.66097021484375 0.33649999999999997 M 4.3259653320312506 0.2425 Q 4.38796533203125 0.303 4.38796533203125 0.417 L 4.38796533203125 0.74 L 4.29796533203125 0.74 L 4.29796533203125 0.43 Q 4.29796533203125 0.348 4.256965332031251 0.3045 Q 4.21596533203125 0.26099999999999995 4.1449653320312505 0.26099999999999995 Q 4.07296533203125 0.26099999999999995 4.03046533203125 0.306 Q 3.9879653320312505 0.351 3.9879653320312505 0.437 L 3.9879653320312505 0.74 L 3.8969653320312503 0.74 L 3.8969653320312503 0.19199999999999995 L 3.9879653320312505 0.19199999999999995 L 3.9879653320312505 0.26999999999999996 Q 4.014965332031251 0.22799999999999998 4.061465332031251 0.20499999999999996 Q 4.107965332031251 0.18199999999999994 4.163965332031251 0.18199999999999994 Q 4.26396533203125 0.18199999999999994 4.3259653320312506 0.2425 M 4.64697998046875 0.26699999999999996 L 4.64697998046875 0.59 Q 4.64697998046875 0.63 4.66397998046875 0.6465 Q 4.68097998046875 0.663 4.72297998046875 0.663 L 4.78997998046875 0.663 L 4.78997998046875 0.74 L 4.70797998046875 0.74 Q 4.63197998046875 0.74 4.59397998046875 0.705 Q 4.55597998046875 0.6699999999999999 4.55597998046875 0.59 L 4.55597998046875 0.26699999999999996 L 4.48497998046875 0.26699999999999996 L 4.48497998046875 0.19199999999999995 L 4.55597998046875 0.19199999999999995 L 4.55597998046875 0.05399999999999994 L 4.64697998046875 0.05399999999999994 L 4.64697998046875 0.19199999999999995 L 4.78997998046875 0.19199999999999995 L 4.78997998046875 0.26699999999999996 L 4.64697998046875 0.26699999999999996 M 4.97999365234375 0.7275 Q 4.929993652343749 0.706 4.900993652343749 0.6675 Q 4.8719936523437495 0.629 4.868993652343749 0.579 L 4.96299365234375 0.579 Q 4.966993652343749 0.62 5.00149365234375 0.646 Q 5.03599365234375 0.6719999999999999 5.091993652343749 0.6719999999999999 Q 5.14399365234375 0.6719999999999999 5.17399365234375 0.649 Q 5.203993652343749 0.626 5.203993652343749 0.591 Q 5.203993652343749 0.5549999999999999 5.171993652343749 0.5375 Q 5.139993652343749 0.52 5.07299365234375 0.503 Q 5.01199365234375 0.487 4.97349365234375 0.4705 Q 4.93499365234375 0.45399999999999996 4.907493652343749 0.4215 Q 4.8799936523437495 0.38899999999999996 4.8799936523437495 0.33599999999999997 Q 4.8799936523437495 0.294 4.90499365234375 0.259 Q 4.929993652343749 0.22399999999999998 4.97599365234375 0.20350000000000001 Q 5.02199365234375 0.18299999999999994 5.08099365234375 0.18299999999999994 Q 5.171993652343749 0.18299999999999994 5.227993652343749 0.22899999999999998 Q 5.283993652343749 0.27499999999999997 5.28799365234375 0.355 L 5.19699365234375 0.355 Q 5.1939936523437495 0.312 5.16249365234375 0.286 Q 5.13099365234375 0.26 5.07799365234375 0.26 Q 5.0289936523437495 0.26 4.99999365234375 0.28099999999999997 Q 4.97099365234375 0.302 4.97099365234375 0.33599999999999997 Q 4.97099365234375 0.363 4.98849365234375 0.3805 Q 5.00599365234375 0.39799999999999996 5.032493652343749 0.4085 Q 5.05899365234375 0.419 5.1059936523437495 0.432 Q 5.16499365234375 0.448 5.2019936523437496 0.46349999999999997 Q 5.2389936523437495 0.479 5.26549365234375 0.51 Q 5.291993652343749 0.5409999999999999 5.29299365234375 0.591 Q 5.29299365234375 0.636 5.267993652343749 0.6719999999999999 Q 5.24299365234375 0.708 5.197493652343749 0.7285 Q 5.15199365234375 0.749 5.09299365234375 0.749 Q 5.02999365234375 0.749 4.97999365234375 0.7275 M 5.591466308593749 0.21450000000000002 Q 5.644966308593749 0.18299999999999994 5.7159663085937495 0.18299999999999994 Q 5.788966308593749 0.18299999999999994 5.84846630859375 0.21799999999999997 Q 5.90796630859375 0.253 5.9419663085937495 0.3165 Q 5.975966308593749 0.38 5.975966308593749 0.46399999999999997 Q 5.975966308593749 0.5469999999999999 5.9419663085937495 0.612 Q 5.90796630859375 0.677 5.84846630859375 0.713 Q 5.788966308593749 0.749 5.7159663085937495 0.749 Q 5.645966308593749 0.749 5.59246630859375 0.7175 Q 5.538966308593749 0.6859999999999999 5.5109663085937495 0.639 L 5.5109663085937495 1 L 5.419966308593749 1 L 5.419966308593749 0.19199999999999995 L 5.5109663085937495 0.19199999999999995 L 5.5109663085937495 0.293 Q 5.53796630859375 0.246 5.591466308593749 0.21450000000000002 M 5.857966308593749 0.356 Q 5.8329663085937495 0.31 5.790466308593749 0.286 Q 5.74796630859375 0.26199999999999996 5.696966308593749 0.26199999999999996 Q 5.64696630859375 0.26199999999999996 5.604466308593749 0.2865 Q 5.56196630859375 0.311 5.5364663085937496 0.3575 Q 5.5109663085937495 0.40399999999999997 5.5109663085937495 0.46499999999999997 Q 5.5109663085937495 0.527 5.5364663085937496 0.5735 Q 5.56196630859375 0.62 5.604466308593749 0.6445 Q 5.64696630859375 0.669 5.696966308593749 0.669 Q 5.74796630859375 0.669 5.790466308593749 0.6445 Q 5.8329663085937495 0.62 5.857966308593749 0.5735 Q 5.882966308593749 0.527 5.882966308593749 0.46399999999999997 Q 5.882966308593749 0.40199999999999997 5.857966308593749 0.356 M 6.478991699218749 0.20850000000000002 Q 6.528991699218749 0.235 6.557491699218749 0.288 Q 6.585991699218749 0.34099999999999997 6.585991699218749 0.417 L 6.585991699218749 0.74 L 6.495991699218749 0.74 L 6.495991699218749 0.43 Q 6.495991699218749 0.348 6.454991699218749 0.3045 Q 6.413991699218749 0.26099999999999995 6.342991699218749 0.26099999999999995 Q 6.270991699218749 0.26099999999999995 6.228491699218749 0.306 Q 6.185991699218749 0.351 6.185991699218749 0.437 L 6.185991699218749 0.74 L 6.094991699218749 0.74 L 6.094991699218749 0 L 6.185991699218749 0 L 6.185991699218749 0.26999999999999996 Q 6.212991699218749 0.22799999999999998 6.260491699218749 0.20499999999999996 Q 6.307991699218749 0.18199999999999994 6.366991699218749 0.18199999999999994 Q 6.428991699218749 0.18199999999999994 6.478991699218749 0.20850000000000002 M 7.2310063476562485 0.5 L 6.793006347656249 0.5 Q 6.798006347656249 0.581 6.848506347656249 0.6265 Q 6.899006347656249 0.6719999999999999 6.971006347656249 0.6719999999999999 Q 7.030006347656249 0.6719999999999999 7.069506347656248 0.6445 Q 7.109006347656249 0.617 7.125006347656249 0.571 L 7.2230063476562485 0.571 Q 7.201006347656248 0.65 7.135006347656248 0.6995 Q 7.069006347656249 0.749 6.971006347656249 0.749 Q 6.893006347656248 0.749 6.831506347656249 0.714 Q 6.770006347656249 0.679 6.735006347656249 0.6145 Q 6.700006347656249 0.55 6.700006347656249 0.46499999999999997 Q 6.700006347656249 0.38 6.734006347656249 0.316 Q 6.768006347656248 0.252 6.829506347656249 0.21750000000000003 Q 6.891006347656249 0.18299999999999994 6.971006347656249 0.18299999999999994 Q 7.049006347656249 0.18299999999999994 7.109006347656249 0.21699999999999997 Q 7.169006347656248 0.251 7.201506347656249 0.3105 Q 7.234006347656249 0.37 7.234006347656249 0.445 Q 7.234006347656249 0.471 7.2310063476562485 0.5 M 7.117006347656249 0.33649999999999997 Q 7.094006347656249 0.299 7.054506347656249 0.27949999999999997 Q 7.015006347656248 0.26 6.967006347656248 0.26 Q 6.898006347656248 0.26 6.8495063476562486 0.304 Q 6.801006347656249 0.348 6.794006347656248 0.426 L 7.140006347656248 0.426 Q 7.140006347656248 0.374 7.117006347656249 0.33649999999999997 M 7.512501464843749 0.20799999999999996 Q 7.557001464843748 0.18199999999999994 7.621001464843748 0.18199999999999994 L 7.621001464843748 0.27599999999999997 L 7.597001464843748 0.27599999999999997 Q 7.4440014648437485 0.27599999999999997 7.4440014648437485 0.442 L 7.4440014648437485 0.74 L 7.353001464843748 0.74 L 7.353001464843748 0.19199999999999995 L 7.4440014648437485 0.19199999999999995 L 7.4440014648437485 0.28099999999999997 Q 7.4680014648437485 0.23399999999999999 7.512501464843749 0.20799999999999996 M 8.221987304687499 0.5 L 7.783987304687498 0.5 Q 7.788987304687498 0.581 7.839487304687498 0.6265 Q 7.889987304687498 0.6719999999999999 7.961987304687498 0.6719999999999999 Q 8.020987304687498 0.6719999999999999 8.060487304687499 0.6445 Q 8.099987304687499 0.617 8.115987304687499 0.571 L 8.213987304687498 0.571 Q 8.191987304687498 0.65 8.125987304687499 0.6995 Q 8.059987304687498 0.749 7.961987304687498 0.749 Q 7.883987304687498 0.749 7.822487304687498 0.714 Q 7.760987304687498 0.679 7.725987304687498 0.6145 Q 7.690987304687498 0.55 7.690987304687498 0.46499999999999997 Q 7.690987304687498 0.38 7.724987304687498 0.316 Q 7.758987304687498 0.252 7.820487304687498 0.21750000000000003 Q 7.881987304687498 0.18299999999999994 7.961987304687498 0.18299999999999994 Q 8.039987304687498 0.18299999999999994 8.099987304687499 0.21699999999999997 Q 8.159987304687498 0.251 8.192487304687498 0.3105 Q 8.224987304687499 0.37 8.224987304687499 0.445 Q 8.224987304687499 0.471 8.221987304687499 0.5 M 8.107987304687498 0.33649999999999997 Q 8.084987304687498 0.299 8.045487304687498 0.27949999999999997 Q 8.005987304687498 0.26 7.957987304687498 0.26 Q 7.888987304687498 0.26 7.840487304687498 0.304 Q 7.791987304687498 0.348 7.7849873046874976 0.426 L 8.130987304687498 0.426 Q 8.130987304687498 0.374 8.107987304687498 0.33649999999999997" fill="#ffffff" fill-rule="nonzero"></path></g><g><path d=" M 4.105489435369317 1.9517272727272728 Q 4.100489435369317 1.9517272727272728 4.097762162642044 1.9487727272727273 Q 4.095034889914771 1.945818181818182 4.095034889914771 1.9412727272727273 L 4.095034889914771 1.6444545454545456 Q 4.095034889914771 1.6394545454545455 4.097762162642044 1.6365 Q 4.100489435369317 1.6335454545454546 4.105489435369317 1.6335454545454546 L 4.220943980823862 1.6335454545454546 Q 4.254580344460226 1.6335454545454546 4.279353071732953 1.6444545454545456 Q 4.304125799005681 1.6553636363636364 4.317762162642045 1.6769545454545454 Q 4.331398526278408 1.6985454545454546 4.331398526278408 1.7308181818181818 Q 4.331398526278408 1.763090909090909 4.317762162642045 1.7844545454545455 Q 4.304125799005681 1.8058181818181818 4.279353071732953 1.8167272727272727 Q 4.254580344460226 1.8276363636363637 4.220943980823862 1.8276363636363637 L 4.140489435369317 1.8276363636363637 L 4.140489435369317 1.9412727272727273 Q 4.140489435369317 1.945818181818182 4.137534889914772 1.9487727272727273 Q 4.134580344460226 1.9517272727272728 4.129580344460226 1.9517272727272728 L 4.105489435369317 1.9517272727272728 M 4.140034889914772 1.7894545454545454 L 4.218671253551135 1.7894545454545454 Q 4.252307617187499 1.7894545454545454 4.269125799005681 1.7744545454545455 Q 4.285943980823863 1.7594545454545454 4.285943980823863 1.7308181818181818 Q 4.285943980823863 1.7026363636363637 4.269580344460226 1.6871818181818181 Q 4.2532167080965895 1.6717272727272727 4.218671253551135 1.6717272727272727 L 4.140034889914772 1.6717272727272727 L 4.140034889914772 1.7894545454545454 M 4.463229802911931 1.9517272727272728 Q 4.456411621093749 1.9517272727272728 4.452547984730113 1.9485454545454546 Q 4.448684348366476 1.9453636363636364 4.446411621093748 1.9403636363636363 L 4.362320712002839 1.7294545454545456 Q 4.361411621093748 1.7271818181818182 4.361411621093748 1.724909090909091 Q 4.361411621093748 1.7208181818181818 4.364138893821021 1.7180909090909091 Q 4.366866166548294 1.7153636363636364 4.370957075639203 1.7153636363636364 L 4.3927752574573855 1.7153636363636364 Q 4.397775257457385 1.7153636363636364 4.400502530184657 1.7180909090909091 Q 4.40322980291193 1.7208181818181818 4.404138893821021 1.7230909090909092 L 4.473229802911931 1.9021818181818182 L 4.54232071200284 1.7230909090909092 Q 4.543229802911931 1.7208181818181818 4.54572980291193 1.7180909090909091 Q 4.548229802911931 1.7153636363636364 4.553229802911931 1.7153636363636364 L 4.575502530184658 1.7153636363636364 Q 4.579138893821021 1.7153636363636364 4.582093439275567 1.7180909090909091 Q 4.585047984730112 1.7208181818181818 4.585047984730112 1.724909090909091 Q 4.585047984730112 1.7271818181818182 4.584138893821022 1.7294545454545456 L 4.499593439275567 1.9403636363636363 Q 4.497775257457385 1.9453636363636364 4.493911621093749 1.9485454545454546 Q 4.490047984730112 1.9517272727272728 4.482775257457385 1.9517272727272728 L 4.463229802911931 1.9517272727272728 M 4.725055308948862 1.9517272727272728 Q 4.699600763494317 1.9517272727272728 4.683691672585226 1.9419545454545455 Q 4.667782581676135 1.9321818181818182 4.660509854403408 1.9142272727272727 Q 4.65323712713068 1.8962727272727273 4.65323712713068 1.8717272727272727 L 4.65323712713068 1.7517272727272728 L 4.617782581676135 1.7517272727272728 Q 4.61323712713068 1.7517272727272728 4.610282581676135 1.7487727272727274 Q 4.607328036221589 1.745818181818182 4.607328036221589 1.7412727272727273 L 4.607328036221589 1.725818181818182 Q 4.607328036221589 1.7212727272727273 4.610282581676135 1.7183181818181819 Q 4.61323712713068 1.7153636363636364 4.617782581676135 1.7153636363636364 L 4.65323712713068 1.7153636363636364 L 4.65323712713068 1.6394545454545455 Q 4.65323712713068 1.6349090909090909 4.6561916725852255 1.6319545454545454 Q 4.659146218039771 1.629 4.663691672585226 1.629 L 4.685055308948862 1.629 Q 4.689600763494317 1.629 4.6925553089488625 1.6319545454545454 Q 4.695509854403408 1.6349090909090909 4.695509854403408 1.6394545454545455 L 4.695509854403408 1.7153636363636364 L 4.751873490767044 1.7153636363636364 Q 4.756873490767044 1.7153636363636364 4.7596007634943165 1.7183181818181819 Q 4.762328036221589 1.7212727272727273 4.762328036221589 1.725818181818182 L 4.762328036221589 1.7412727272727273 Q 4.762328036221589 1.745818181818182 4.7596007634943165 1.7487727272727274 Q 4.756873490767044 1.7517272727272728 4.751873490767044 1.7517272727272728 L 4.695509854403408 1.7517272727272728 L 4.695509854403408 1.8685454545454545 Q 4.695509854403408 1.889909090909091 4.702782581676135 1.9021818181818182 Q 4.710055308948863 1.9144545454545454 4.728691672585226 1.9144545454545454 L 4.7564189453124985 1.9144545454545454 Q 4.760964399857953 1.9144545454545454 4.763918945312499 1.9174090909090908 Q 4.766873490767044 1.9203636363636365 4.766873490767044 1.924909090909091 L 4.766873490767044 1.9412727272727273 Q 4.766873490767044 1.945818181818182 4.763918945312499 1.9487727272727273 Q 4.760964399857953 1.9517272727272728 4.7564189453124985 1.9517272727272728 L 4.725055308948862 1.9517272727272728 M 4.938230912642044 1.9517272727272728 Q 4.933230912642044 1.9517272727272728 4.930503639914771 1.9487727272727273 Q 4.927776367187498 1.945818181818182 4.927776367187498 1.9412727272727273 L 4.927776367187498 1.6440000000000001 Q 4.927776367187498 1.6394545454545455 4.930503639914771 1.6365 Q 4.933230912642044 1.6335454545454546 4.938230912642044 1.6335454545454546 L 4.962321821732953 1.6335454545454546 Q 4.966867276278408 1.6335454545454546 4.969821821732953 1.6365 Q 4.972776367187499 1.6394545454545455 4.972776367187499 1.6440000000000001 L 4.972776367187499 1.9121818181818182 L 5.123685458096589 1.9121818181818182 Q 5.128685458096589 1.9121818181818182 5.1316400035511345 1.9151363636363636 Q 5.13459454900568 1.918090909090909 5.13459454900568 1.9230909090909092 L 5.13459454900568 1.9412727272727273 Q 5.13459454900568 1.945818181818182 5.1316400035511345 1.9487727272727273 Q 5.128685458096589 1.9517272727272728 5.123685458096589 1.9517272727272728 L 4.938230912642044 1.9517272727272728 M 5.248237571022726 1.9517272727272728 Q 5.22278302556818 1.9517272727272728 5.2068739346590895 1.9419545454545455 Q 5.190964843749998 1.9321818181818182 5.183692116477271 1.9142272727272727 Q 5.176419389204543 1.8962727272727273 5.176419389204543 1.8717272727272727 L 5.176419389204543 1.7517272727272728 L 5.140964843749998 1.7517272727272728 Q 5.136419389204543 1.7517272727272728 5.133464843749998 1.7487727272727274 Q 5.1305102982954525 1.745818181818182 5.1305102982954525 1.7412727272727273 L 5.1305102982954525 1.725818181818182 Q 5.1305102982954525 1.7212727272727273 5.133464843749998 1.7183181818181819 Q 5.136419389204543 1.7153636363636364 5.140964843749998 1.7153636363636364 L 5.176419389204543 1.7153636363636364 L 5.176419389204543 1.6394545454545455 Q 5.176419389204543 1.6349090909090909 5.179373934659089 1.6319545454545454 Q 5.182328480113634 1.629 5.186873934659089 1.629 L 5.2082375710227256 1.629 Q 5.21278302556818 1.629 5.215737571022726 1.6319545454545454 Q 5.218692116477271 1.6349090909090909 5.218692116477271 1.6394545454545455 L 5.218692116477271 1.7153636363636364 L 5.275055752840907 1.7153636363636364 Q 5.280055752840907 1.7153636363636364 5.28278302556818 1.7183181818181819 Q 5.285510298295453 1.7212727272727273 5.285510298295453 1.725818181818182 L 5.285510298295453 1.7412727272727273 Q 5.285510298295453 1.745818181818182 5.28278302556818 1.7487727272727274 Q 5.280055752840907 1.7517272727272728 5.275055752840907 1.7517272727272728 L 5.218692116477271 1.7517272727272728 L 5.218692116477271 1.8685454545454545 Q 5.218692116477271 1.889909090909091 5.225964843749998 1.9021818181818182 Q 5.233237571022726 1.9144545454545454 5.2518739346590895 1.9144545454545454 L 5.279601207386362 1.9144545454545454 Q 5.284146661931817 1.9144545454545454 5.287101207386362 1.9174090909090908 Q 5.290055752840908 1.9203636363636365 5.290055752840908 1.924909090909091 L 5.290055752840908 1.9412727272727273 Q 5.290055752840908 1.945818181818182 5.287101207386362 1.9487727272727273 Q 5.284146661931817 1.9517272727272728 5.279601207386362 1.9517272727272728 L 5.248237571022726 1.9517272727272728 M 5.420051757812498 1.9562727272727274 Q 5.395051757812498 1.9562727272727274 5.37686993963068 1.9474090909090909 Q 5.3586881214488615 1.9385454545454546 5.347097212357952 1.923318181818182 Q 5.335506303267043 1.908090909090909 5.329824485085225 1.8885454545454545 Q 5.324142666903407 1.869 5.323233575994316 1.8471818181818183 Q 5.32277903053977 1.839909090909091 5.32277903053977 1.8335454545454546 Q 5.32277903053977 1.8271818181818182 5.323233575994316 1.819909090909091 Q 5.324142666903407 1.7985454545454547 5.329824485085225 1.779 Q 5.335506303267043 1.7594545454545454 5.347097212357952 1.744 Q 5.3586881214488615 1.7285454545454546 5.37686993963068 1.7196818181818183 Q 5.395051757812498 1.7108181818181818 5.420051757812498 1.7108181818181818 Q 5.4468699396306794 1.7108181818181818 5.464597212357953 1.7203636363636363 Q 5.4823244850852255 1.7299090909090908 5.493688121448861 1.744 L 5.493688121448861 1.6394545454545455 Q 5.493688121448861 1.6349090909090909 5.496642666903407 1.6319545454545454 Q 5.499597212357952 1.629 5.504142666903407 1.629 L 5.5259608487215885 1.629 Q 5.530506303267043 1.629 5.533460848721589 1.6319545454545454 Q 5.536415394176134 1.6349090909090909 5.536415394176134 1.6394545454545455 L 5.536415394176134 1.9412727272727273 Q 5.536415394176134 1.945818181818182 5.533460848721589 1.9487727272727273 Q 5.530506303267043 1.9517272727272728 5.5259608487215885 1.9517272727272728 L 5.505506303267043 1.9517272727272728 Q 5.500506303267043 1.9517272727272728 5.49777903053977 1.9487727272727273 Q 5.495051757812498 1.945818181818182 5.495051757812498 1.9412727272727273 L 5.495051757812498 1.9221818181818182 Q 5.4836881214488615 1.9367272727272729 5.465506303267043 1.9465000000000001 Q 5.447324485085225 1.9562727272727274 5.420051757812498 1.9562727272727274 M 5.429597212357953 1.9194545454545455 Q 5.452324485085225 1.9194545454545455 5.465960848721589 1.909 Q 5.479597212357953 1.8985454545454545 5.486415394176134 1.882409090909091 Q 5.493233575994316 1.8662727272727273 5.493688121448861 1.8494545454545455 Q 5.494142666903407 1.8421818181818181 5.494142666903407 1.8319545454545454 Q 5.494142666903407 1.8217272727272729 5.493688121448861 1.8144545454545455 Q 5.493233575994316 1.7985454545454547 5.486188121448862 1.783090909090909 Q 5.479142666903407 1.7676363636363637 5.4652790305397705 1.7576363636363637 Q 5.451415394176134 1.7476363636363637 5.429597212357953 1.7476363636363637 Q 5.406415394176134 1.7476363636363637 5.392779030539771 1.7578636363636364 Q 5.379142666903407 1.7680909090909092 5.373233575994316 1.7846818181818183 Q 5.367324485085225 1.8012727272727274 5.366415394176134 1.8203636363636364 Q 5.365960848721588 1.8335454545454546 5.366415394176134 1.8467272727272728 Q 5.367324485085225 1.8658181818181818 5.373233575994316 1.882409090909091 Q 5.379142666903407 1.899 5.392779030539771 1.9092272727272728 Q 5.406415394176134 1.9194545454545455 5.429597212357953 1.9194545454545455" fill="#ffffff" fill-rule="nonzero"></path></g></g><defs><clipPath id="SvgjsClipPath3185"><path d=" M 8.367982421874997 -0.129 h 1.258 v 1.258 h -1.258 Z"></path></clipPath></defs></svg> 